# xmcd
#
# Track frame offsets: 
#        150
#        18460
#        38228
#        50656
#        88002
#        113881
#        134231
#        162973
#        179212
#        200596
#        215109
#
# Disc length: 3354 seconds
#
# Revision: 1
# Processed by: cddbd v1.5.2PL0 Copyright (c) Steve Scherf et al.
# Submitted via: ExactAudioCopy v1.0b3
#
DISCID=af0d180b
DTITLE=Terry Frank - Blues In The Night
DYEAR=1999
DGENRE=Blues
TTITLE0=Eyes Like A Cat
TTITLE1=Life Ain't Fair
TTITLE2=Red Hot
TTITLE3=Blues In The Night
TTITLE4=Right Here In Your Arms
TTITLE5=No More Doggin'
TTITLE6=Party Time
TTITLE7=I Don't Mind
TTITLE8=Honey Hush
TTITLE9=Terry's Stomp
TTITLE10=Chicken A Al Blues
EXTD=
EXTT0=
EXTT1=
EXTT2=
EXTT3=
EXTT4=
EXTT5=
EXTT6=
EXTT7=
EXTT8=
EXTT9=
EXTT10=
PLAYORDER=
